# xmcd CD database file
#
# Track frame offsets:
#	150
#	47557
#	81180
#	122330
#	163565
#	220900
#	250310
#
# Disc length: 4004 seconds
#
# Revision: 0
# Processed by: cddbd v1.5PL3 Copyright (c) Steve Scherf et al.
# Submitted via: CDex 1.51
#
DISCID=540fa207
DTITLE=Eugene Pao - By the Company you Keep
DYEAR=1994
DGENRE=Jazz
TTITLE0=Nothing Personal
TTITLE1=The Meaning of the Blues
TTITLE2=Cantaloupe Island
TTITLE3=Angel Eyes
TTITLE4=Silver Hollow
TTITLE5=Alone Together
TTITLE6=Estate
EXTD=YEAR: 1994
EXTT0=
EXTT1=
EXTT2=
EXTT3=
EXTT4=
EXTT5=
EXTT6=
PLAYORDER=
